<svg xmlns="http://www.w3.org/2000/svg" viewBox="0 0 32 32" fill="none">
  <defs>
    <linearGradient id="oracleGradient" x1="0%" y1="0%" x2="100%" y2="100%">
      <stop offset="0%" stop-color="hsl(300, 90%, 60%)" />
      <stop offset="100%" stop-color="hsl(195, 95%, 55%)" />
    </linearGradient>
  </defs>
  <!-- Diamond card shape -->
  <path d="M16 2L30 16L16 30L2 16L16 2Z" fill="url(#oracleGradient)" opacity="0.15"/>
  <path d="M16 2L30 16L16 30L2 16L16 2Z" stroke="url(#oracleGradient)" stroke-width="2" fill="none"/>
  <!-- Inner eye shape -->
  <path d="M8 16C8 16 11 11 16 11C21 11 24 16 24 16C24 16 21 21 16 21C11 21 8 16 8 16Z" fill="url(#oracleGradient)" opacity="0.2"/>
  <path d="M8 16C8 16 11 11 16 11C21 11 24 16 24 16C24 16 21 21 16 21C11 21 8 16 8 16Z" stroke="url(#oracleGradient)" stroke-width="1.5" fill="none"/>
  <!-- Pupil with glow -->
  <circle cx="16" cy="16" r="3" fill="url(#oracleGradient)"/>
  <circle cx="15" cy="15" r="1" fill="white" opacity="0.8"/>
</svg>